<?xml version="1.0" encoding="UTF-8"?>
<!DOCTYPE svg PUBLIC "-//W3C//DTD SVG 1.1//EN" "http://www.w3.org/Graphics/SVG/1.1/DTD/svg11.dtd">
<!-- Creator: CorelDRAW -->
<svg xmlns="http://www.w3.org/2000/svg" xml:space="preserve" width="69.9416mm" height="35.3941mm" version="1.1" style="shape-rendering:geometricPrecision; text-rendering:geometricPrecision; image-rendering:optimizeQuality; fill-rule:evenodd; clip-rule:evenodd"
viewBox="0 0 4586.29 2320.9"
 xmlns:xlink="http://www.w3.org/1999/xlink"
 xmlns:xodm="http://www.corel.com/coreldraw/odm/2003">
 <defs>
  <style type="text/css">
   <![CDATA[
    .fil5 {fill:#2B83FF}
    .fil0 {fill:#368700}
    .fil9 {fill:#397F0D}
    .fil8 {fill:#499F10}
    .fil7 {fill:#A136FF}
    .fil1 {fill:#FEFEFE}
    .fil6 {fill:#FF6E00}
    .fil2 {fill:#FFC800}
    .fil4 {fill:white}
    .fil3 {fill:#036CFF;fill-rule:nonzero}
   ]]>
  </style>
 </defs>
 <g id="Capa_x0020_1">
  <metadata id="CorelCorpID_0Corel-Layer"/>
  <path class="fil0" d="M775.47 845.42l3087.69 0c398,0 723.09,331.68 723.09,737.74 0,406.06 -325.09,737.74 -723.09,737.74l-3087.69 0c-398,0 -723.09,-331.68 -723.09,-737.74 0,-406.06 325.09,-737.74 723.09,-737.74z"/>
  <path class="fil1" d="M783.02 934.19l3072.59 0c354.27,0 643.87,291.89 643.87,648.96 0,357.08 -289.59,648.97 -643.87,648.97l-3072.59 0c-354.27,0 -643.87,-291.89 -643.87,-648.96 0,-357.08 289.59,-648.97 643.87,-648.97z"/>
  <rect class="fil2" x="228.06" y="1015.87" width="4182.51" height="1134.59" rx="677.09" ry="567.3"/>
  <g id="_1956167236368">
   <path class="fil1" d="M3566.17 1199.24c3.66,-0.56 7.42,-0.84 11.27,-0.84l194.64 0c27.01,0 50.16,14.16 62.47,38.2l3.78 7.36 0.87 -2.11c11.07,-26.85 35.86,-43.45 64.9,-43.45l190.72 0c25.36,0 47.15,12.34 60.2,34.09 13.04,21.75 13.67,46.78 1.72,69.15l-145.78 273.05 151.55 289.54c11.71,22.39 10.94,47.28 -2.14,68.9 -13.08,21.61 -34.78,33.84 -60.05,33.84l-196.21 0c-27.09,0 -50.3,-14.24 -62.57,-38.39l-9.43 -18.55 -6.18 14.41c-11.3,26.37 -35.82,42.52 -64.5,42.52l-193.07 0c-2.24,0 -4.46,-0.1 -6.65,-0.29 -2.1,0.19 -4.22,0.29 -6.37,0.29l-146.46 0c-74.11,0 -148.97,-16.49 -205.47,-67.28 -15.19,-13.67 -27.87,-28.73 -38.28,-44.9l0 42c0,38.66 -31.53,70.19 -70.19,70.19l-186.48 0c-15.06,0 -29.04,-4.79 -40.5,-12.92 -11.46,8.13 -25.44,12.92 -40.5,12.92l-186.48 0c-38.66,0 -70.19,-31.53 -70.19,-70.19l0 -92.41c-14.6,21.7 -31.63,42.32 -51.09,61.8 -77.61,77.7 -173.45,116.81 -283.23,116.81 -109.63,0 -205.28,-39.55 -282.76,-117.13 -19.85,-19.87 -37.2,-40.91 -52.04,-63.07l0 93.99c0,38.66 -31.53,70.19 -70.19,70.19l-186.48 0c-9.32,0 -18.22,-1.83 -26.37,-5.15 -8.14,3.32 -17.05,5.15 -26.37,5.15l-186.48 0c-9.32,0 -18.22,-1.83 -26.37,-5.15 -8.14,3.32 -17.05,5.15 -26.37,5.15l-186.48 0c-22.99,0 -43.46,-11.15 -56.27,-28.31 -12.81,17.17 -33.28,28.31 -56.27,28.31l-186.48 0c-11.43,0 -22.24,-2.75 -31.79,-7.63 -9.55,4.88 -20.35,7.63 -31.78,7.63l-49.61 0c-79.48,0 -153.9,-22.96 -209.73,-81.32 -55.82,-58.35 -76.45,-134.59 -76.45,-213.8l0 -403.26c0,-38.66 31.53,-70.19 70.19,-70.19l186.48 0c38.66,0 70.19,31.53 70.19,70.19l0 373.27c0,0.74 0,1.58 0.01,2.49l2.3 0 0 -375.77c0,-38.66 31.53,-70.19 70.19,-70.19l186.48 0c38.66,0 70.19,31.53 70.19,70.19l0 49.99c10.82,-21.64 24.96,-41.89 42.69,-60.4 49.09,-51.25 112.56,-74.85 183.17,-74.85 58.52,0 108.81,18.28 149.53,51.95 10.22,-8.45 21.14,-16.07 32.81,-22.6 38.05,-21.3 80.82,-29.35 124.07,-29.35 71.28,0 136.83,22.8 183.57,78.08 28.16,33.3 44.71,72.66 53.46,114.15 16.74,-27.11 37.17,-52.59 61.27,-76.31 78.99,-77.74 176.52,-115.92 287.2,-115.92 108.63,0 202.74,40.56 278.79,118.03 25.77,26.25 47.32,54.48 64.56,84.56 13.26,-43.52 36.04,-83.41 70.18,-117.62 59.69,-59.8 136.82,-84.96 220.46,-84.96 81.83,0 158.84,23.69 214.75,85.66 23.19,25.71 39.92,54.89 51.57,86.05 11.74,-32.33 30.07,-62 56.48,-87.34 53.01,-50.85 122.62,-69.3 194.57,-69.3l162 0c3.69,0 7.32,0.29 10.86,0.84zm47.45 289.18c-1.07,1.59 -2.2,3.14 -3.4,4.64 1.97,6.47 3.03,13.32 3.03,20.41l0 139.39c0,6.54 -0.9,12.87 -2.58,18.89l50.45 -92.9 -47.49 -90.43zm-1377.17 20.83c-19.51,0 -33.84,6.62 -47.34,20.68 -14.69,15.29 -20.92,32.07 -20.92,53.24 0,21.14 6.22,37.86 20.94,53.09 13.49,13.97 27.84,20.82 47.32,20.82 19.58,0 34.03,-6.3 47.58,-20.44 14.71,-15.35 20.68,-32.26 20.68,-53.47 0,-21.21 -5.97,-38.12 -20.68,-53.47 -13.55,-14.14 -28,-20.44 -47.58,-20.44z"/>
  </g>
  <path class="fil3" d="M538.34 1268.59l186.48 0 0 373.27c0,29.2 4.71,48.5 13.97,58.24 9.42,9.74 27.94,14.45 55.57,14.45l9.58 0 0 182.24 -49.61 0c-68.12,0 -121.02,-19.93 -159.01,-59.65 -37.99,-39.71 -56.98,-94.81 -56.98,-165.28l0 -403.26zm515.65 0l0 628.2 -186.48 0 0 -628.2 186.48 0zm112.54 628.2l0 -452.7c0,-56.04 16.96,-101.72 51.02,-137.35 34.07,-35.48 78.17,-53.21 132.48,-53.21 64.36,0 113.8,29.51 148.5,88.38 21.19,-31.87 43.95,-54.47 68.12,-67.97 24.33,-13.65 54.15,-20.41 89.78,-20.41 56.51,0 99.84,17.74 129.97,53.21 29.98,35.63 45.05,86.65 45.05,153.52l0 436.53 -186.48 0 0 -408.59c0,-19.78 -1.57,-32.96 -4.87,-39.4 -3.3,-6.43 -9.89,-9.73 -19.93,-9.73 -18.68,0 -27.94,15.38 -27.94,45.99l0 411.73 -186.48 0 0 -408.59c0,-19.46 -1.72,-32.65 -5.02,-39.25 -3.46,-6.59 -10.05,-9.89 -19.93,-9.89 -18.52,0 -27.78,16.33 -27.78,49.13l0 408.59 -186.48 0zm1075.41 -643.27c88.85,0 165.13,32.34 228.71,97.01 63.57,64.83 95.44,142.21 95.44,232.32 0,91.82 -32.02,169.68 -96.06,233.73 -64.05,64.2 -141.9,96.22 -233.57,96.22 -91.04,0 -168.74,-32.18 -233.1,-96.54 -64.36,-64.52 -96.54,-142.21 -96.54,-233.41 0,-91.99 32.33,-169.84 97.17,-233.57 64.83,-63.89 144.25,-95.76 237.96,-95.76zm-5.5 185.54c-38.3,0 -70.95,14.13 -97.95,42.23 -27,28.1 -40.5,62.16 -40.5,101.87 0,39.71 13.49,73.77 40.66,101.87 27.15,28.1 59.8,42.23 97.79,42.23 38.62,0 71.42,-13.97 98.26,-42.07 26.85,-27.94 40.19,-62 40.19,-102.03 0,-40.03 -13.34,-74.09 -40.19,-102.03 -26.84,-28.1 -59.65,-42.07 -98.26,-42.07zm404.51 457.73l0 -407.65c0,-71.26 21.35,-128.41 64.2,-171.26 42.69,-42.85 99.68,-64.36 170.79,-64.36 70.95,0 125.1,20.88 162.62,62.48 37.51,41.59 56.35,101.56 56.35,179.57l0 401.22 -186.48 0 0 -401.22c0,-37.67 -13.66,-56.51 -41.13,-56.51 -26.52,0 -39.87,18.84 -39.87,56.51l0 401.22 -186.48 0zm902.11 -383.32l0 139.39 -121.34 0c-16.48,0 -28.26,2.51 -35,7.38 -6.9,5.02 -10.36,13.34 -10.36,25.11 0,13.34 3.46,21.98 10.52,26.22 7.06,4.24 21.35,6.28 43.01,6.28l125.42 0 0 178.95 -146.46 0c-69.06,0 -121.97,-16.49 -158.54,-49.29 -36.58,-32.96 -54.79,-80.52 -54.79,-142.68l0 -246.13c0,-60.28 17.27,-107.05 51.8,-140.33 34.69,-33.12 83.19,-49.76 145.98,-49.76l162 0 0 180.83 -118.99 0c-31.86,0 -47.72,10.52 -47.72,31.4 0,12.24 3.77,20.72 11.3,25.43 7.69,4.87 21.19,7.22 40.5,7.22l102.65 0zm551.75 -244.88l-163.25 305.78 168.75 322.42 -196.21 0 -77.38 -152.26 -65.3 152.26 -193.07 0 172.35 -317.39 -163.24 -310.8 194.64 0 73.15 142.84 58.86 -142.84 190.72 0z"/>
  <path class="fil4" d="M3048.54 681.06c32.66,-89.34 112.07,-156.44 202.56,-191.7l0 -214.39c-23.67,-17.19 -39.67,-43.59 -39.67,-75.04l0 -67.36c0,-57.68 52.6,-96.53 107.17,-96.53l189.1 0c54.57,0 107.17,38.85 107.17,96.53l0 67.36c0,31.45 -15.99,57.85 -39.67,75.04l0 214.4c118.71,46.24 218.37,147.32 218.37,281.51l0 11.61c0,31.67 -25.83,57.49 -57.49,57.49l-645.88 0c-16.37,0 -31.19,-6.9 -41.67,-17.95 -10.49,11.04 -25.3,17.95 -41.67,17.95l-645.88 0c-16.37,0 -31.19,-6.9 -41.67,-17.95 -10.49,11.04 -25.3,17.95 -41.67,17.95l-645.88 0c-16.37,0 -31.19,-6.9 -41.67,-17.95 -10.49,11.04 -25.3,17.95 -41.67,17.95l-645.88 0c-31.67,0 -57.49,-25.83 -57.49,-57.49l0 -11.61c0,-134.18 99.66,-235.26 218.38,-281.51l0 -214.39c-23.67,-17.19 -39.67,-43.59 -39.67,-75.04l0 -67.36c0,-57.68 52.6,-96.53 107.17,-96.53l189.1 0c54.57,0 107.17,38.85 107.17,96.53l0 67.36c0,31.45 -15.99,57.85 -39.67,75.04l0 214.4c90.48,35.25 169.9,102.35 202.55,191.69 32.66,-89.34 112.07,-156.44 202.56,-191.7l0 -214.39c-23.67,-17.19 -39.67,-43.59 -39.67,-75.04l0 -67.36c0,-57.68 52.6,-96.53 107.17,-96.53l189.1 0c54.57,0 107.17,38.85 107.17,96.53l0 67.36c0,31.45 -15.99,57.85 -39.67,75.04l0 214.4c90.48,35.25 169.9,102.35 202.55,191.69 32.66,-89.34 112.07,-156.44 202.56,-191.7l0 -214.39c-23.67,-17.19 -39.67,-43.59 -39.67,-75.04l0 -67.36c0,-57.68 52.6,-96.53 107.17,-96.53l189.1 0c54.57,0 107.17,38.85 107.17,96.53l0 67.36c0,31.45 -15.99,57.85 -39.67,75.04l0 214.4c90.48,35.25 169.9,102.35 202.55,191.69z"/>
  <path class="fil5" d="M1130.95 93.54l189.1 0c27.34,0 49.68,17.56 49.68,39.04l0 67.36c0,18.78 -17.09,34.57 -39.67,38.24l0 292.71c126.71,34.33 218.37,129.15 218.37,240l0 11.61 -645.88 0 0 -11.61c0,-110.84 91.66,-205.67 218.38,-240l0 -292.7c-22.58,-3.67 -39.67,-19.46 -39.67,-38.24l0 -67.36c0,-21.48 22.34,-39.04 49.68,-39.04z"/>
  <path class="fil6" d="M1860.17 93.54l189.1 0c27.34,0 49.68,17.56 49.68,39.04l0 67.36c0,18.78 -17.09,34.57 -39.67,38.24l0 292.71c126.71,34.33 218.37,129.15 218.37,240l0 11.61 -645.88 0 0 -11.61c0,-110.84 91.66,-205.67 218.38,-240l0 -292.7c-22.58,-3.67 -39.67,-19.46 -39.67,-38.24l0 -67.36c0,-21.48 22.34,-39.04 49.68,-39.04z"/>
  <path class="fil7" d="M2589.38 93.54l189.1 0c27.34,0 49.68,17.56 49.68,39.04l0 67.36c0,18.78 -17.09,34.57 -39.67,38.24l0 292.71c126.71,34.33 218.37,129.15 218.37,240l0 11.61 -645.88 0 0 -11.61c0,-110.84 91.66,-205.67 218.38,-240l0 -292.7c-22.58,-3.67 -39.67,-19.46 -39.67,-38.24l0 -67.36c0,-21.48 22.34,-39.04 49.68,-39.04z"/>
  <path class="fil8" d="M3318.6 93.54l189.1 0c27.34,0 49.68,17.56 49.68,39.04l0 67.36c0,18.78 -17.09,34.57 -39.67,38.24l0 292.71c126.71,34.33 218.37,129.15 218.37,240l0 11.61 -645.88 0 0 -11.61c0,-110.84 91.66,-205.67 218.38,-240l0 -292.7c-22.58,-3.67 -39.67,-19.46 -39.67,-38.24l0 -67.36c0,-21.48 22.34,-39.04 49.68,-39.04z"/>
  <g id="_1956167268336">
   <path class="fil4" d="M42.31 239.22c11.11,-34.9 35.18,-87.51 53.57,-117.78 15.22,-25.05 29.38,-49.83 45.61,-74.35 8.12,-12.27 18.48,-28.07 30.19,-36.69 16.47,-12.13 37.05,-13.74 55.21,-4.31 18.16,9.43 28.68,27.19 28.23,47.64 -0.46,20.91 -7.29,34.47 -3.98,57.27 9.13,62.85 79.74,110.1 131.93,136.23 23.83,11.93 48.43,21.23 72.79,31.89 30.5,13.34 57.51,28.41 84.25,48.39 1.92,1.44 3.48,2.77 5.21,4.45l56.39 54.91c1.97,1.91 3.53,3.68 5.19,5.87 12.89,16.98 24.23,36.91 33.24,56.24 46.48,99.73 23.02,225.66 -31.45,317.36 -9.46,15.91 -12.39,26.87 -29.32,39.28 -12.6,9.25 -27.5,12.35 -42.06,9.04 -5.25,9.15 -13.19,16.63 -23.1,21.53 -3.84,2.26 -7.95,3.97 -12.27,5.12 -4.7,1.36 -9.52,2.01 -14.37,1.96 -16.1,1.55 -31.47,5.12 -48.62,5.67 -0.58,0.02 -1.08,0.03 -1.67,0.03l-62.94 0c-0.61,0 -1.13,-0.01 -1.74,-0.03 -22.7,-0.75 -45.73,-3.87 -68.27,-6.52 -25.25,-2.98 -50.6,-10.56 -74.6,-18.79 -4.64,-1.59 -9.15,-2.94 -13.76,-4.75 -84.85,-33.22 -135.9,-82.59 -176.56,-163.43 -23.44,-46.61 -39.61,-130.95 -39.42,-183.22 0.28,-73.34 12.92,-165.15 42.31,-232.99z"/>
  </g>
  <g id="_1956167209344">
   <path class="fil8" d="M487.86 790.69c-1,-6.3 -11.2,-7.82 -17,-10.32 -44.67,-19.27 -91.62,-47.64 -129.14,-75.91 -112.86,-85.05 -197.04,-210.35 -232.43,-351.56 -2.71,-10.82 -17.32,-94.79 -17.84,-95.31 7.42,-24.32 35.75,-86.84 49.19,-108.95 18.45,-30.36 23,-40.12 44.52,-72.64 3.26,-4.91 13.72,-20.59 17.57,-23.43 -0.21,9.57 -8.2,33.23 -3.45,65.95 12,82.56 90.53,140.59 160.32,175.54 55.97,28.01 94.96,34.94 149.15,75.4l56.39 54.91c10.09,13.3 20.1,30.85 27.49,46.71 39.8,85.4 14.94,194.48 -29.01,268.48 -4.66,7.84 -8.56,18.88 -15.26,23.79 -0.84,-10.02 -2.62,-24.23 -4.71,-34.35l-13.66 -64.45c-12.73,-50.81 -32.54,-95.34 -59.11,-140.06 -36.93,-62.17 -107.76,-123.52 -178.32,-139.96l21.49 15.59c20.13,14.22 44.47,34.05 59.7,53.57 65.74,84.1 79.46,123.51 106.3,235.4 6.52,27.19 7.03,63.76 10.36,85.45 2.76,18.05 2.26,12.93 -2.57,16.13l0 0z"/>
   <path class="fil9" d="M487.86 790.69c-9.01,0.33 -30.14,5.22 -50.58,5.87l-62.94 0c-15.2,-0.5 -28.72,-2.04 -63.88,-6.19 -20.8,-2.45 -44.13,-9.59 -63.74,-16.31 -5.45,-1.86 -6.51,-1.95 -11.65,-3.97 -73.78,-28.87 -114.51,-69.9 -148.86,-138.19 -20.2,-40.16 -33.98,-118.35 -33.83,-159.48 0.26,-66.63 12.18,-154.39 39.07,-214.81 0.52,0.52 15.13,84.48 17.84,95.3 35.39,141.21 119.57,266.51 232.43,351.56 37.52,28.27 84.47,56.64 129.14,75.91 5.8,2.5 16,4.01 17,10.31l0 0z"/>
  </g>
  <g id="_1956167218944">
   <path class="fil4" d="M4071.68 835.97c-9.73,-4.9 -17.52,-12.29 -22.7,-21.32 -14.56,3.3 -29.46,0.2 -42.06,-9.04 -16.92,-12.41 -19.86,-23.36 -29.32,-39.28 -54.47,-91.7 -77.93,-217.63 -31.45,-317.36 9.01,-19.33 20.35,-39.26 33.24,-56.24 1.66,-2.19 3.22,-3.95 5.19,-5.87l56.39 -54.91c1.72,-1.68 3.29,-3.01 5.21,-4.45 26.75,-19.97 53.76,-35.04 84.25,-48.39 24.36,-10.66 48.96,-19.95 72.79,-31.89 52.2,-26.13 122.81,-73.38 131.93,-136.23 3.31,-22.79 -3.52,-36.35 -3.98,-57.27 -0.45,-20.45 10.07,-38.21 28.23,-47.64 18.16,-9.43 38.73,-7.82 55.21,4.31 11.71,8.62 22.07,24.42 30.19,36.69 16.24,24.52 30.39,49.3 45.61,74.35 18.39,30.27 42.46,82.88 53.57,117.78 29.38,67.84 42.03,159.65 42.31,232.99 0.2,52.27 -15.97,136.61 -39.42,183.22 -40.66,80.84 -91.7,130.21 -176.56,163.43 -4.61,1.8 -9.12,3.16 -13.76,4.75 -24,8.23 -49.35,15.81 -74.6,18.79 -22.54,2.66 -45.57,5.77 -68.27,6.52 -0.61,0.02 -1.13,0.03 -1.74,0.03l-62.94 0c-0.58,0 -1.08,-0.01 -1.67,-0.03 -17.19,-0.55 -32.31,-4.12 -48.54,-5.67 -4.73,0.06 -9.44,-0.56 -14.03,-1.84 -4.67,-1.18 -9.03,-3 -13.09,-5.44z"/>
  </g>
  <g id="_1956167219808">
   <path class="fil8" d="M4098.42 790.69c1,-6.3 11.2,-7.82 17,-10.32 44.67,-19.27 91.62,-47.64 129.14,-75.91 112.86,-85.05 197.04,-210.35 232.43,-351.56 2.71,-10.82 17.32,-94.79 17.84,-95.31 -7.42,-24.32 -35.75,-86.84 -49.19,-108.95 -18.45,-30.36 -23,-40.12 -44.52,-72.64 -3.26,-4.91 -13.72,-20.59 -17.57,-23.43 0.21,9.57 8.2,33.23 3.45,65.95 -12,82.56 -90.53,140.59 -160.32,175.54 -55.97,28.01 -94.96,34.94 -149.15,75.4l-56.39 54.91c-10.09,13.3 -20.1,30.85 -27.49,46.71 -39.8,85.4 -14.94,194.48 29.01,268.48 4.66,7.84 8.56,18.88 15.26,23.79 0.84,-10.02 2.62,-24.23 4.71,-34.35l13.66 -64.45c12.73,-50.81 32.54,-95.34 59.11,-140.06 36.93,-62.17 107.76,-123.52 178.32,-139.96l-21.49 15.59c-20.13,14.22 -44.47,34.05 -59.7,53.57 -65.74,84.1 -79.46,123.51 -106.3,235.4 -6.52,27.19 -7.03,63.76 -10.36,85.45 -2.76,18.05 -2.26,12.93 2.57,16.13l0 0z"/>
   <path class="fil9" d="M4098.42 790.69c9.01,0.33 30.14,5.22 50.58,5.87l62.94 0c15.2,-0.5 28.72,-2.04 63.88,-6.19 20.8,-2.45 44.13,-9.59 63.74,-16.31 5.45,-1.86 6.51,-1.95 11.65,-3.97 73.78,-28.87 114.51,-69.9 148.86,-138.19 20.2,-40.16 33.98,-118.35 33.83,-159.48 -0.26,-66.63 -12.18,-154.39 -39.07,-214.81 -0.52,0.52 -15.13,84.48 -17.84,95.3 -35.39,141.21 -119.57,266.51 -232.43,351.56 -37.52,28.27 -84.47,56.64 -129.14,75.91 -5.8,2.5 -16,4.01 -17,10.31l0 0z"/>
  </g>
 </g>
</svg>
